<svg xmlns="http://www.w3.org/2000/svg" version="1.0" viewBox="0 0 450 450">
    <path fill="black"
        d="M45.5 1.9a65.4 65.4 0 0 0-41 36.9l-4 8.7v355l4 8.7a66 66 0 0 0 34.3 34.3l8.7 4 132.4.3 132.4.2 6.3-3.5c7-3.9 11.8-9 16.9-18 4.3-7.4 5.3-9 24.5-40.8l18-30c4.5-7.8 29.2-49.1 31.5-52.7 2-3 13.6-22.3 19.5-32.5l9-15c11.5-18.9 12-20.2 12-32.5s-.5-13.6-12-32.5l-9-15c-5.9-10.2-17.5-29.5-19.5-32.5-2.3-3.6-27-44.9-31.5-52.7l-18-30c-19.2-31.8-20.2-33.4-24.5-40.8-5.1-9-9.9-14.1-16.9-18L312.3 0H181.4C56.5.1 50.3.2 45.5 1.9zm264.9 7.7c2.8 1 6.6 3.4 9 5.8 2.9 2.8 22.8 35.1 62.4 101.2 63.7 106.3 61.8 102.6 59.4 114-.9 4.6-11.5 22.9-59.4 102.7-39.9 66.7-59.5 98.5-62.4 101.3-8.1 8 1.5 7.5-140 7.2l-125.9-.3-6.6-2.6A58.9 58.9 0 0 1 10.4 401c-1.8-5.3-1.9-12-1.9-176s.1-170.7 1.9-176A58.5 58.5 0 0 1 54.5 9c2.2-.4 59.6-.8 127.6-.9 112-.1 124 .1 128.3 1.5z" />
    <path fill="red"
        d="M197.5 86.5a75 75 0 0 0-49.4 38.4 108.2 108.2 0 0 0-11.5 53.1c0 11.9.4 16.1 2.3 23.5a76.3 76.3 0 0 0 40.9 51.9l5.3 2.7-2.4 4.2a2415.6 2415.6 0 0 0-56.5 102.5c.3 1.5 2 1.7 17.2 1.7h16.8l27-51.8 27.1-51.8 9.6.3 9.6.3.3 51.8.2 51.8 14.3-.3 14.2-.3.3-137.5c.1-75.6 0-138.5-.3-139.8L262 85l-29.3.1c-20.3 0-31 .5-35.2 1.4zm36.3 85.9c.2 50.5 0 64.1-1 64.8-1.7 1.1-10.5 1-20.6-.2-22.3-2.5-37.7-18-42.7-42.9a141.8 141.8 0 0 1 1.4-47.9c5.8-19.8 17.7-32.9 33.6-36.8a89 89 0 0 1 17-1.1l12 .2.3 63.9z" />
</svg>