<svg xmlns="http://www.w3.org/2000/svg" viewBox="0 0 192 192">
   <g fill="none" fill-rule="evenodd">
      <path fill="#2787f5" d="M67 0h58c54 0 67 13 67 67v58c0 54-13 67-67 67H67c-54 0-67-13-67-67V67C0 13 13 0 67 0z" />
      <path fill="#FFF"
         d="M157 66c1-3 0-5-4-5h-14c-4 0-5 2-6 4 0 0-7 17-17 29l-7 4c-1 0-2-1-2-4V66c0-3-1-5-4-5H81c-2 0-4 2-4 3 0 4 5 4 6 14v20c0 5-1 6-3 6-4 0-16-18-23-38-1-3-2-5-6-5H37c-4 0-5 2-5 4 0 4 5 22 22 46 12 17 28 26 43 26 9 0 10-2 10-5v-13c0-4 1-5 4-5 2 0 5 1 14 9 9 10 11 14 16 14h14c4 0 6-2 5-6s-6-10-12-16l-10-10c-2-3-1-4 0-7 0 0 17-24 19-32z" />
   </g>
</svg>